<?xml version="1.0" encoding="UTF-8"?>
<svg width="1216px" height="1221px" viewBox="0 0 1216 1221" version="1.1" xmlns="http://www.w3.org/2000/svg" xmlns:xlink="http://www.w3.org/1999/xlink">
    <!-- Generator: Sketch 51.3 (57544) - http://www.bohemiancoding.com/sketch -->
    <title>MontageSymbol</title>
    <desc>Created with Sketch.</desc>
    <defs></defs>
    <g id="Page-1" stroke="none" stroke-width="1" fill="none" fill-rule="evenodd">
        <path d="M696.546947,793.789691 L1119.40486,511.877663 L1119.59534,1075.78277 L696.546947,793.789691 Z M657.511041,346.919349 L657.511041,139.087193 L969.255222,346.919349 L1080.08121,420.80469 L657.511041,702.510028 L657.511041,346.919349 Z M559.856432,703.401629 L137.014733,420.995168 L248.116303,346.919349 L559.856432,139.087193 L559.856432,346.919349 L559.856432,703.401629 Z M97.9666689,1075.68551 L97.9666689,511.877663 L520.820526,793.789691 L97.9666689,1075.68551 Z M1214.2955,409.177404 C1213.93481,407.840003 1213.29853,406.668764 1212.85273,405.408364 C1211.87602,402.753825 1210.88716,400.115497 1209.52139,397.70007 C1208.71084,396.289719 1207.70171,395.077953 1206.76958,393.801342 C1205.27818,391.710133 1203.81514,389.667557 1202.01978,387.843828 C1200.80801,386.579375 1199.43414,385.537824 1198.07242,384.423322 C1196.78365,383.373665 1195.72589,382.133529 1194.33985,381.213559 L1142.89854,346.919349 L635.152123,8.41903657 C634.47937,7.97323615 634.163257,7.68549224 633.474293,7.28021913 C632.805592,6.88305148 631.816726,6.37646009 631.119656,6.00766156 C629.863309,5.33085547 628.473222,5.0998498 627.180401,4.54867837 C625.121614,3.66113026 623.091196,2.806004 620.918932,2.22241072 C618.835828,1.63476471 616.752724,1.33080988 614.608829,1.0471187 C612.456829,0.763427521 610.349409,0.5 608.16904,0.5 L607.824558,0.5 C605.640135,0.5 603.540821,0.763427521 601.388821,1.0471187 C599.253031,1.33080988 597.161822,1.63476471 595.070613,2.22241072 C592.898349,2.806004 590.892247,3.66113026 588.809143,4.54867837 C587.512269,5.0998498 586.138393,5.33085547 584.873941,6.00766156 C584.180924,6.37646009 583.67028,6.9641061 583.00158,7.38153741 C582.316668,7.77870505 581.526385,7.97323615 580.833368,8.41903657 L56.2397495,358.157572 L21.6496895,381.213559 C20.2798664,382.133529 19.2099454,383.373665 17.9333351,384.423322 C16.5675647,385.537824 15.1977416,386.579375 13.9819223,387.843828 C12.1744042,389.667557 10.7032628,391.710133 9.23212144,393.801342 C8.29999329,395.077953 7.27059959,396.289719 6.47221157,397.70007 C5.10644119,400.115497 4.1175748,402.753825 3.16518299,405.408364 C2.70317164,406.668764 2.05473467,407.840003 1.68998887,409.177404 C0.620067858,413.197713 0,417.384185 0,421.680079 L0.36879853,1167.03001 C0.36879853,1196.75274 24.446074,1220.83407 54.1688039,1220.83407 C63.9804659,1220.83407 73.1761127,1218.18764 81.0789384,1213.604 L580.833368,875.865601 C581.526385,875.411695 582.316668,875.217164 583.00158,874.832155 C583.67028,874.418776 584.180924,873.823025 584.873941,873.446121 C586.138393,872.773367 587.512269,872.538309 588.809143,871.995243 C590.892247,871.123906 592.898349,870.264727 595.070613,869.673028 C597.161822,869.077276 599.253031,868.797638 601.388821,868.513947 C603.540821,868.22215 605.640135,867.946564 607.824558,867.946564 L608.16904,867.946564 C610.349409,867.946564 612.456829,868.22215 614.608829,868.513947 C616.752724,868.797638 618.835828,869.077276 620.918932,869.673028 C623.091196,870.264727 625.121614,871.123906 627.180401,871.995243 C628.473222,872.538309 629.863309,872.773367 631.119656,873.446121 C631.816726,873.823025 632.290895,874.045925 632.963649,874.455251 C633.644507,874.872682 634.47937,875.411695 635.152123,875.865601 L1134.91061,1213.604 C1142.82154,1218.18764 1152.00908,1220.83407 1161.83695,1220.83407 C1191.54347,1220.83407 1215.61669,1196.75274 1215.61669,1167.03001 L1215.79096,421.680079 C1215.79096,417.384185 1215.36948,413.197713 1214.2955,409.177404 Z" id="MontageSymbol" fill="#FFFFFF"></path>
    </g>
</svg>